<svg width="48" height="48" viewBox="0 0 48 48" fill="none" xmlns="http://www.w3.org/2000/svg">
<mask id="path-1-inside-1_5_128" fill="white">
<path d="M48 24C48 37.2548 37.2548 48 24 48C10.7452 48 0 37.2548 0 24C0 10.7452 10.7452 0 24 0C37.2548 0 48 10.7452 48 24ZM9.71588 24C9.71588 31.8889 16.1111 38.2841 24 38.2841C31.8889 38.2841 38.2841 31.8889 38.2841 24C38.2841 16.1111 31.8889 9.71588 24 9.71588C16.1111 9.71588 9.71588 16.1111 9.71588 24Z"/>
</mask>
<path d="M48 24C48 37.2548 37.2548 48 24 48C10.7452 48 0 37.2548 0 24C0 10.7452 10.7452 0 24 0C37.2548 0 48 10.7452 48 24ZM9.71588 24C9.71588 31.8889 16.1111 38.2841 24 38.2841C31.8889 38.2841 38.2841 31.8889 38.2841 24C38.2841 16.1111 31.8889 9.71588 24 9.71588C16.1111 9.71588 9.71588 16.1111 9.71588 24Z" fill="white" stroke="#3872FE" stroke-width="2" mask="url(#path-1-inside-1_5_128)"/>
</svg>
