<svg width="48" height="48" viewBox="0 0 48 48" fill="none" xmlns="http://www.w3.org/2000/svg">
<mask id="path-1-inside-1_5_1028" fill="white">
<path fill-rule="evenodd" clip-rule="evenodd" d="M0 48L0 40.1311H19.6L19.6 7.86885H0L0 0H48V7.86885H27.6L27.6 40.1311H48V48H0Z"/>
</mask>
<path fill-rule="evenodd" clip-rule="evenodd" d="M0 48L0 40.1311H19.6L19.6 7.86885H0L0 0H48V7.86885H27.6L27.6 40.1311H48V48H0Z" fill="white"/>
<path d="M0 40.1311L0 39.1311H-1L-1 40.1311H0ZM0 48H-1V49H0L0 48ZM19.6 40.1311V41.1311H20.6V40.1311H19.6ZM19.6 7.86885H20.6V6.86885H19.6V7.86885ZM0 7.86885H-1V8.86885H0L0 7.86885ZM0 0L0 -1H-1L-1 0H0ZM48 0H49V-1H48V0ZM48 7.86885V8.86885H49V7.86885H48ZM27.6 7.86885V6.86885H26.6V7.86885H27.6ZM27.6 40.1311H26.6V41.1311H27.6V40.1311ZM48 40.1311H49V39.1311H48V40.1311ZM48 48V49H49V48H48ZM-1 40.1311L-1 48H1L1 40.1311H-1ZM19.6 39.1311H0L0 41.1311H19.6V39.1311ZM20.6 40.1311L20.6 7.86885H18.6L18.6 40.1311H20.6ZM0 8.86885H19.6V6.86885H0L0 8.86885ZM-1 0L-1 7.86885H1L1 0H-1ZM48 -1H0L0 1H48V-1ZM49 7.86885V0H47V7.86885H49ZM27.6 8.86885H48V6.86885H27.6V8.86885ZM26.6 7.86885L26.6 40.1311H28.6L28.6 7.86885H26.6ZM48 39.1311H27.6V41.1311H48V39.1311ZM49 48V40.1311H47V48H49ZM0 49H48V47H0L0 49Z" fill="#3872FE" mask="url(#path-1-inside-1_5_1028)"/>
</svg>
