<svg width="52" height="32" viewBox="0 0 52 32" fill="none" xmlns="http://www.w3.org/2000/svg">
<mask id="path-1-inside-1_5_780" fill="white">
<path fill-rule="evenodd" clip-rule="evenodd" d="M43.3333 0.833374H52V22.5V31.1667H43.3333L8.66667 31.1667H0V22.5V0.833384H8.66667V22.5H43.3333V0.833374Z"/>
</mask>
<path fill-rule="evenodd" clip-rule="evenodd" d="M43.3333 0.833374H52V22.5V31.1667H43.3333L8.66667 31.1667H0V22.5V0.833384H8.66667V22.5H43.3333V0.833374Z" fill="white"/>
<path d="M52 0.833374H52.8667V-0.0332927H52V0.833374ZM43.3333 0.833374V-0.0332927H42.4667V0.833374H43.3333ZM52 31.1667V32.0334H52.8667V31.1667H52ZM43.3333 31.1667V30.3V31.1667ZM8.66667 31.1667V32.0334V31.1667ZM0 31.1667H-0.866667V32.0334H0V31.1667ZM0 0.833384V-0.0332825H-0.866667V0.833384H0ZM8.66667 0.833384H9.53333V-0.0332825H8.66667V0.833384ZM8.66667 22.5H7.8V23.3667H8.66667V22.5ZM43.3333 22.5V23.3667H44.2V22.5H43.3333ZM52 -0.0332927H43.3333V1.70004H52V-0.0332927ZM52.8667 22.5V0.833374H51.1333V22.5H52.8667ZM51.1333 22.5V31.1667H52.8667V22.5H51.1333ZM52 30.3H43.3333V32.0334H52V30.3ZM43.3333 30.3L8.66667 30.3001V32.0334L43.3333 32.0334V30.3ZM8.66667 30.3001H0V32.0334H8.66667V30.3001ZM0.866667 31.1667V22.5H-0.866667V31.1667H0.866667ZM-0.866667 0.833384V22.5H0.866667V0.833384H-0.866667ZM8.66667 -0.0332825H0V1.70005H8.66667V-0.0332825ZM9.53333 22.5V0.833384H7.8V22.5H9.53333ZM8.66667 23.3667H43.3333V21.6334H8.66667V23.3667ZM42.4667 0.833374V22.5H44.2V0.833374H42.4667Z" fill="#3872FE" mask="url(#path-1-inside-1_5_780)"/>
</svg>
