<svg xmlns="http://www.w3.org/2000/svg" xmlns:xlink="http://www.w3.org/1999/xlink"><symbol id="arrow-down" viewBox="0 0 22 7">
<path d="M1 1L9.88889 6L21 1" stroke="black" stroke-width="1.5" stroke-linecap="round" stroke-linejoin="round"/>
</symbol><symbol id="arrow-right" viewBox="0 0 16 13">
<path d="M0.870361 5.4582H11.1522L6.82913 0.596558H9.75009L15.8257 6.38423L9.75009 12.4034H6.82913L11.1522 7.77327H0.870361V5.4582Z"/>
</symbol><symbol id="balka" viewBox="0 0 48 48">
<mask id="path-1-inside-1_5_1028" fill="white">
<path fill-rule="evenodd" clip-rule="evenodd" d="M0 48L0 40.1311H19.6L19.6 7.86885H0L0 0H48V7.86885H27.6L27.6 40.1311H48V48H0Z"/>
</mask>
<path fill-rule="evenodd" clip-rule="evenodd" d="M0 48L0 40.1311H19.6L19.6 7.86885H0L0 0H48V7.86885H27.6L27.6 40.1311H48V48H0Z" fill="white"/>
<path d="M0 40.1311L0 39.1311H-1L-1 40.1311H0ZM0 48H-1V49H0L0 48ZM19.6 40.1311V41.1311H20.6V40.1311H19.6ZM19.6 7.86885H20.6V6.86885H19.6V7.86885ZM0 7.86885H-1V8.86885H0L0 7.86885ZM0 0L0 -1H-1L-1 0H0ZM48 0H49V-1H48V0ZM48 7.86885V8.86885H49V7.86885H48ZM27.6 7.86885V6.86885H26.6V7.86885H27.6ZM27.6 40.1311H26.6V41.1311H27.6V40.1311ZM48 40.1311H49V39.1311H48V40.1311ZM48 48V49H49V48H48ZM-1 40.1311L-1 48H1L1 40.1311H-1ZM19.6 39.1311H0L0 41.1311H19.6V39.1311ZM20.6 40.1311L20.6 7.86885H18.6L18.6 40.1311H20.6ZM0 8.86885H19.6V6.86885H0L0 8.86885ZM-1 0L-1 7.86885H1L1 0H-1ZM48 -1H0L0 1H48V-1ZM49 7.86885V0H47V7.86885H49ZM27.6 8.86885H48V6.86885H27.6V8.86885ZM26.6 7.86885L26.6 40.1311H28.6L28.6 7.86885H26.6ZM48 39.1311H27.6V41.1311H48V39.1311ZM49 48V40.1311H47V48H49ZM0 49H48V47H0L0 49Z" fill="#3872FE" mask="url(#path-1-inside-1_5_1028)"/>
</symbol><symbol id="krug" viewBox="0 0 48 48">
<circle cx="24" cy="24" r="23.5" fill="white" stroke="#3872FE"/>
</symbol><symbol id="kvadrat" viewBox="0 0 48 48">
<rect x="0.5" y="0.5" width="47" height="47" fill="white" stroke="#3872FE"/>
</symbol><symbol id="kytik" viewBox="0 0 48 48">
<mask id="path-1-inside-1_5_239" fill="white">
<path fill-rule="evenodd" clip-rule="evenodd" d="M12 0H0V36V48H12H48V36H12V0Z"/>
</mask>
<path fill-rule="evenodd" clip-rule="evenodd" d="M12 0H0V36V48H12H48V36H12V0Z" fill="white"/>
<path d="M0 0V-0.8H-0.8V0H0ZM12 0H12.8V-0.8H12V0ZM0 48H-0.8V48.8H0V48ZM48 48V48.8H48.8V48H48ZM48 36H48.8V35.2H48V36ZM12 36H11.2V36.8H12V36ZM0 0.8H12V-0.8H0V0.8ZM0.8 36V0H-0.8V36H0.8ZM0.8 48V36H-0.8V48H0.8ZM12 47.2H0V48.8H12V47.2ZM48 47.2H12V48.8H48V47.2ZM47.2 36V48H48.8V36H47.2ZM12 36.8H48V35.2H12V36.8ZM11.2 0V36H12.8V0H11.2Z" fill="#3872FE" mask="url(#path-1-inside-1_5_239)"/>
</symbol><symbol id="list" viewBox="0 0 34 48">
<rect x="1" y="0.5" width="32" height="47" fill="white" stroke="#3872FE"/>
</symbol><symbol id="shestigrannik" viewBox="0 0 42 48">
<path d="M0.715391 12.2887L21 0.57735L41.2846 12.2887V35.7113L21 47.4226L0.715391 35.7113V12.2887Z" fill="white" stroke="#3872FE"/>
</symbol><symbol id="shveler" viewBox="0 0 52 32">
<mask id="path-1-inside-1_5_780" fill="white">
<path fill-rule="evenodd" clip-rule="evenodd" d="M43.3333 0.833374H52V22.5V31.1667H43.3333L8.66667 31.1667H0V22.5V0.833384H8.66667V22.5H43.3333V0.833374Z"/>
</mask>
<path fill-rule="evenodd" clip-rule="evenodd" d="M43.3333 0.833374H52V22.5V31.1667H43.3333L8.66667 31.1667H0V22.5V0.833384H8.66667V22.5H43.3333V0.833374Z" fill="white"/>
<path d="M52 0.833374H52.8667V-0.0332927H52V0.833374ZM43.3333 0.833374V-0.0332927H42.4667V0.833374H43.3333ZM52 31.1667V32.0334H52.8667V31.1667H52ZM43.3333 31.1667V30.3V31.1667ZM8.66667 31.1667V32.0334V31.1667ZM0 31.1667H-0.866667V32.0334H0V31.1667ZM0 0.833384V-0.0332825H-0.866667V0.833384H0ZM8.66667 0.833384H9.53333V-0.0332825H8.66667V0.833384ZM8.66667 22.5H7.8V23.3667H8.66667V22.5ZM43.3333 22.5V23.3667H44.2V22.5H43.3333ZM52 -0.0332927H43.3333V1.70004H52V-0.0332927ZM52.8667 22.5V0.833374H51.1333V22.5H52.8667ZM51.1333 22.5V31.1667H52.8667V22.5H51.1333ZM52 30.3H43.3333V32.0334H52V30.3ZM43.3333 30.3L8.66667 30.3001V32.0334L43.3333 32.0334V30.3ZM8.66667 30.3001H0V32.0334H8.66667V30.3001ZM0.866667 31.1667V22.5H-0.866667V31.1667H0.866667ZM-0.866667 0.833384V22.5H0.866667V0.833384H-0.866667ZM8.66667 -0.0332825H0V1.70005H8.66667V-0.0332825ZM9.53333 22.5V0.833384H7.8V22.5H9.53333ZM8.66667 23.3667H43.3333V21.6334H8.66667V23.3667ZM42.4667 0.833374V22.5H44.2V0.833374H42.4667Z" fill="#3872FE" mask="url(#path-1-inside-1_5_780)"/>
</symbol><symbol id="smyga" viewBox="0 0 50 34">
<rect x="0.5" y="33" width="32" height="49" transform="rotate(-90 0.5 33)" fill="white" stroke="#3872FE"/>
</symbol><symbol id="truba-profilna" viewBox="0 0 48 48">
<mask id="path-1-inside-1_5_249" fill="white">
<path fill-rule="evenodd" clip-rule="evenodd" d="M48 0H0V48H48V0ZM40 8H8V40H40V8Z"/>
</mask>
<path fill-rule="evenodd" clip-rule="evenodd" d="M48 0H0V48H48V0ZM40 8H8V40H40V8Z" fill="white"/>
<path d="M0 0V-1H-1V0H0ZM48 0H49V-1H48V0ZM0 48H-1V49H0V48ZM48 48V49H49V48H48ZM8 8V7H7V8H8ZM40 8H41V7H40V8ZM8 40H7V41H8V40ZM40 40V41H41V40H40ZM0 1H48V-1H0V1ZM1 48V0H-1V48H1ZM48 47H0V49H48V47ZM47 0V48H49V0H47ZM8 9H40V7H8V9ZM9 40V8H7V40H9ZM40 39H8V41H40V39ZM39 8V40H41V8H39Z" fill="#3872FE" mask="url(#path-1-inside-1_5_249)"/>
</symbol><symbol id="tryba" viewBox="0 0 48 48">
<mask id="path-1-inside-1_5_128" fill="white">
<path d="M48 24C48 37.2548 37.2548 48 24 48C10.7452 48 0 37.2548 0 24C0 10.7452 10.7452 0 24 0C37.2548 0 48 10.7452 48 24ZM9.71588 24C9.71588 31.8889 16.1111 38.2841 24 38.2841C31.8889 38.2841 38.2841 31.8889 38.2841 24C38.2841 16.1111 31.8889 9.71588 24 9.71588C16.1111 9.71588 9.71588 16.1111 9.71588 24Z"/>
</mask>
<path d="M48 24C48 37.2548 37.2548 48 24 48C10.7452 48 0 37.2548 0 24C0 10.7452 10.7452 0 24 0C37.2548 0 48 10.7452 48 24ZM9.71588 24C9.71588 31.8889 16.1111 38.2841 24 38.2841C31.8889 38.2841 38.2841 31.8889 38.2841 24C38.2841 16.1111 31.8889 9.71588 24 9.71588C16.1111 9.71588 9.71588 16.1111 9.71588 24Z" fill="white" stroke="#3872FE" stroke-width="2" mask="url(#path-1-inside-1_5_128)"/>
</symbol></svg>